<svg height="512" viewBox="0 0 512 512" width="512" xmlns="http://www.w3.org/2000/svg" xmlns:xlink="http://www.w3.org/1999/xlink"><linearGradient id="a" gradientUnits="userSpaceOnUse" x1=".436" x2="521.495" y1="511.564" y2="-9.495" data-name="New Gradient Swatch 1"><stop offset="0" stop-color="#003f8a"/><stop offset=".518" stop-color="#00d7df"/><stop offset="1" stop-color="#006df0"/></linearGradient><linearGradient id="b" x1="-197.564" x2="323.495" xlink:href="#a" y1="313.564" y2="-207.495"/><linearGradient id="c" x1="-181.564" x2="339.495" xlink:href="#a" y1="329.564" y2="-191.495"/><linearGradient id="d" x1="-165.564" x2="355.495" xlink:href="#a" y1="345.564" y2="-175.495"/><linearGradient id="e" x1="-3.564" x2="517.495" xlink:href="#a" y1="507.564" y2="-13.495"/><linearGradient id="f" x1="-13.599" x2="507.46" xlink:href="#a" y1="497.599" y2="-23.46"/><linearGradient id="g" x1="76.436" x2="597.495" xlink:href="#a" y1="587.564" y2="66.505"/><g><path d="m476 32h-440a28.032 28.032 0 0 0 -28 28v392a28.032 28.032 0 0 0 28 28h440a28.032 28.032 0 0 0 28-28v-392a28.032 28.032 0 0 0 -28-28zm-440 16h440a12.013 12.013 0 0 1 12 12v20h-464v-20a12.013 12.013 0 0 1 12-12zm440 416h-440a12.013 12.013 0 0 1 -12-12v-356h464v356a12.013 12.013 0 0 1 -12 12z" fill="url(#a)"/><path d="m48 72h8a8 8 0 0 0 0-16h-8a8 8 0 0 0 0 16z" fill="url(#b)"/><path d="m80 72h8a8 8 0 0 0 0-16h-8a8 8 0 0 0 0 16z" fill="url(#c)"/><path d="m112 72h8a8 8 0 0 0 0-16h-8a8 8 0 0 0 0 16z" fill="url(#d)"/><path d="m428 120h-344a28.032 28.032 0 0 0 -28 28v200a28.032 28.032 0 0 0 28 28h344a28.032 28.032 0 0 0 28-28v-200a28.032 28.032 0 0 0 -28-28zm12 228a12.013 12.013 0 0 1 -12 12h-344a12.013 12.013 0 0 1 -12-12v-200a12.013 12.013 0 0 1 12-12h344a12.013 12.013 0 0 1 12 12z" fill="url(#e)"/><path d="m299.578 240.845-80-40a8 8 0 0 0 -11.578 7.155v80a8 8 0 0 0 11.578 7.155l80-40a8 8 0 0 0 0-14.31zm-75.578 34.211v-54.112l54.111 27.056z" fill="url(#f)"/><path d="m424 400h-73.376a24 24 0 0 0 -45.248 0h-217.376a8 8 0 0 0 0 16h217.376a24 24 0 0 0 45.248 0h73.376a8 8 0 0 0 0-16zm-96 16a8 8 0 1 1 8-8 8.009 8.009 0 0 1 -8 8z" fill="url(#g)"/></g></svg>