<svg height="512" viewBox="0 0 64 64" width="512" xmlns="http://www.w3.org/2000/svg"><g id="flat"><path d="m32 16v-4a2 2 0 0 0 -2-2h-13a2 2 0 0 0 -2 2v4h-9.938a2.062 2.062 0 0 0 -2.062 2.062v26.938a4 4 0 0 0 4 4h45v-33z" fill="#394d5c"/><path d="m19 14h9v6h-9z" fill="#f4f4e6"/><path d="m7 12h2a2 2 0 0 1 2 2v2a0 0 0 0 1 0 0h-6a0 0 0 0 1 0 0v-2a2 2 0 0 1 2-2z" fill="#7d8d9c"/><path d="m6 19h2v2h-2z" fill="#7d8d9c"/><path d="m10 19h2v2h-2z" fill="#7d8d9c"/><path d="m7 24h31v21h-31z" fill="#4f97d5"/><circle cx="45" cy="24" fill="#f4f4e6" r="2"/><path d="m37 19h2v2h-2z" fill="#7d8d9c"/><path d="m41 44h2v2h-2z" fill="#7d8d9c"/><path d="m47 28h2v2h-2z" fill="#7d8d9c"/><path d="m19 6a2 2 0 0 1 2 2v2a0 0 0 0 1 0 0h-4a0 0 0 0 1 0 0v-2a2 2 0 0 1 2-2z" fill="#aabece"/><path d="m28 6a2 2 0 0 1 2 2v2a0 0 0 0 1 0 0h-4a0 0 0 0 1 0 0v-2a2 2 0 0 1 2-2z" fill="#aabece"/><path d="m3 27h4v15h-4z" fill="#143441"/><path d="m7 35h31l-10-11-10 11-5-7z" fill="#c8d952"/><path d="m17 27h2v2h-2z" fill="#f4f4e6"/><g fill="#7fcac9"><path d="m10 38h6v2h-6z"/><path d="m18 40h6v2h-6z"/><path d="m26 37h5v2h-5z"/><path d="m33 40h2v2h-2z"/></g><path d="m61 58v-36l-5.781-8.672a7.475 7.475 0 0 0 -6.219-3.328h-10a3 3 0 0 0 -3 3 3 3 0 0 0 3 3h9l4 6v14l-9-5c-1.663-.97-4.139-.722-5 1-.791 1.582-.536 3.122 1 4l5 3a11.614 11.614 0 0 0 4.3 6.474l.7.526v12z" fill="#ffd782"/></g></svg>