<svg height="512" viewBox="0 0 64 64" width="512" xmlns="http://www.w3.org/2000/svg"><g id="flat"><path d="m3 33v-27.031a2.969 2.969 0 0 1 2.969-2.969h52.062a2.969 2.969 0 0 1 2.969 2.969v27.031z" fill="#394d5c"/><path d="m23 7h34v14h-34z" fill="#4f97d5"/><path d="m46 21 7-9 4 4v5z" fill="#8ec13f"/><path d="m25 41h14v9h-14z" fill="#7d8d9c"/><path d="m3 33h58a0 0 0 0 1 0 0v5a3 3 0 0 1 -3 3h-52.031a2.969 2.969 0 0 1 -2.969-2.969v-5.031a0 0 0 0 1 0 0z" fill="#aabece"/><path d="m31 36h2v2h-2z" fill="#f4f4e6"/><path d="m25 50-5 5h19v-5z" fill="#aabece"/><path d="m41 60h-22a4 4 0 0 1 -4-4v-6a2 2 0 0 0 -2-2 4 4 0 0 1 -4-4v-3h2v3a2 2 0 0 0 2 2 4 4 0 0 1 4 4v6a2 2 0 0 0 2 2h22z" fill="#2d75bb"/><g fill="#f4f4e6"><path d="m6 6h2v2h-2z"/><path d="m10 6h2v2h-2z"/><path d="m14 6h2v2h-2z"/><path d="m6 10h14v2h-14z"/><path d="m6 14h14v2h-14z"/><path d="m6 18h14v2h-14z"/></g><path d="m9 25h4v4h-4z" fill="#f9bb4b"/><path d="m13 25h4v4h-4z" fill="#ffd782"/><path d="m17 25h4v4h-4z" fill="#f9bb4b"/><path d="m21 25h4v4h-4z" fill="#ffd782"/><path d="m25 25h4v4h-4z" fill="#f9bb4b"/><path d="m29 25h4v4h-4z" fill="#ffd782"/><path d="m33 25h4v4h-4z" fill="#f9bb4b"/><path d="m37 25h4v4h-4z" fill="#ffd782"/><path d="m41 25h4v4h-4z" fill="#f9bb4b"/><path d="m45 25h4v4h-4z" fill="#ffd782"/><path d="m49 25h4v4h-4z" fill="#f9bb4b"/><path d="m53 25h4v4h-4z" fill="#ffd782"/><path d="m23 7h17v14h-17z" fill="#50b4f8"/><path d="m23 17 8-4 9 4v4h-17z" fill="#3e8051"/><path d="m40 21 7-7 6 7z" fill="#c8d952"/><path d="m26 10h2v2h-2z" fill="#f4f4e6"/><path d="m43 10h2v2h-2z" fill="#f4f4e6"/><path d="m6 36h6v2h-6z" fill="#f4f4e6"/><path d="m8 54.13a4.078 4.078 0 0 1 1.83 1.04 4.025 4.025 0 0 1 1.17 2.83v3h-8v-3a3.992 3.992 0 0 1 3-3.87z" fill="#394d5c"/><path d="m8 54.13v3.87h-2v-3.87a3.911 3.911 0 0 1 2 0z" fill="#7d8d9c"/><path d="m57 50h-12l2-5h8z" fill="#143441"/><path d="m39 50h20a2 2 0 0 1 2 2v7a2 2 0 0 1 -2 2h-18a2 2 0 0 1 -2-2v-9a0 0 0 0 1 0 0z" fill="#394d5c"/><circle cx="51" cy="55" fill="#cfdfe8" r="6"/><circle cx="51" cy="55" fill="#f4f4e6" r="2"/></g></svg>