<svg xmlns="http://www.w3.org/2000/svg" viewBox="0 0 64 64"><title>icon</title><rect x="35" y="7" width="22" height="20" rx="1" ry="1" fill="#b51040"/><path d="M56,27.5H36A1.5,1.5,0,0,1,34.5,26V8A1.5,1.5,0,0,1,36,6.5H56A1.5,1.5,0,0,1,57.5,8V26A1.5,1.5,0,0,1,56,27.5ZM36,7.5a.5.5,0,0,0-.5.5V26a.5.5,0,0,0,.5.5H56a.5.5,0,0,0,.5-.5V8a.5.5,0,0,0-.5-.5Z" fill="#212a41"/><rect x="4" y="7" width="22" height="20" rx="1" ry="1" fill="#005b8a"/><path d="M25,27.5H5A1.5,1.5,0,0,1,3.5,26V8A1.5,1.5,0,0,1,5,6.5H25A1.5,1.5,0,0,1,26.5,8V26A1.5,1.5,0,0,1,25,27.5ZM5,7.5a.5.5,0,0,0-.5.5V26a.5.5,0,0,0,.5.5H25a.5.5,0,0,0,.5-.5V8a.5.5,0,0,0-.5-.5Z" fill="#212a41"/><rect x="38" y="7" width="22" height="20" rx="1" ry="1" fill="#d32e5e"/><path d="M59,27.5H39A1.5,1.5,0,0,1,37.5,26V8A1.5,1.5,0,0,1,39,6.5H59A1.5,1.5,0,0,1,60.5,8V26A1.5,1.5,0,0,1,59,27.5ZM39,7.5a.5.5,0,0,0-.5.5V26a.5.5,0,0,0,.5.5H59a.5.5,0,0,0,.5-.5V8a.5.5,0,0,0-.5-.5Z" fill="#212a41"/><rect x="7" y="7" width="22" height="20" rx="1" ry="1" fill="#0079a8"/><path d="M28,27.5H8A1.5,1.5,0,0,1,6.5,26V8A1.5,1.5,0,0,1,8,6.5H28A1.5,1.5,0,0,1,29.5,8V26A1.5,1.5,0,0,1,28,27.5ZM8,7.5a.5.5,0,0,0-.5.5V26a.5.5,0,0,0,.5.5H28a.5.5,0,0,0,.5-.5V8a.5.5,0,0,0-.5-.5Z" fill="#212a41"/><path d="M9,25.5a.5.5,0,0,1-.5-.5V9a.5.5,0,0,1,1,0V25A.5.5,0,0,1,9,25.5Z" fill="#1e97c6"/><rect x="4" y="37" width="22" height="20" rx="1" ry="1" fill="#99a2b9"/><path d="M25,57.5H5A1.5,1.5,0,0,1,3.5,56V38A1.5,1.5,0,0,1,5,36.5H25A1.5,1.5,0,0,1,26.5,38V56A1.5,1.5,0,0,1,25,57.5ZM5,37.5a.5.5,0,0,0-.5.5V56a.5.5,0,0,0,.5.5H25a.5.5,0,0,0,.5-.5V38a.5.5,0,0,0-.5-.5Z" fill="#212a41"/><rect x="7" y="37" width="22" height="20" rx="1" ry="1" fill="#b7c0d7"/><path d="M28,57.5H8A1.5,1.5,0,0,1,6.5,56V38A1.5,1.5,0,0,1,8,36.5H28A1.5,1.5,0,0,1,29.5,38V56A1.5,1.5,0,0,1,28,57.5ZM8,37.5a.5.5,0,0,0-.5.5V56a.5.5,0,0,0,.5.5H28a.5.5,0,0,0,.5-.5V38a.5.5,0,0,0-.5-.5Z" fill="#212a41"/><path d="M9,55.5a.5.5,0,0,1-.5-.5V39a.5.5,0,0,1,1,0V55A.5.5,0,0,1,9,55.5Z" fill="#d5def5"/><path d="M27,25.5a.5.5,0,0,1-.5-.5V9a.5.5,0,0,1,1,0V25A.5.5,0,0,1,27,25.5Z" fill="#005b8a"/><path d="M27,55.5a.5.5,0,0,1-.5-.5V39a.5.5,0,0,1,1,0V55A.5.5,0,0,1,27,55.5Z" fill="#99a2b9"/><path d="M58,25.5a.5.5,0,0,1-.5-.5V9a.5.5,0,0,1,1,0V25A.5.5,0,0,1,58,25.5Z" fill="#b51040"/><path d="M19.5,12.75h3v-3h-3a3.5,3.5,0,0,0-3.5,3.5v2.5H13.5v3H16v5.5h3v-5.5h2.5l1-3H19v-2.5A.5.5,0,0,1,19.5,12.75Z" fill="#e0e0e0"/><path d="M19,24.75H16a.5.5,0,0,1-.5-.5v-5h-2a.5.5,0,0,1-.5-.5v-3a.5.5,0,0,1,.5-.5h2v-2a4,4,0,0,1,4-4h3a.5.5,0,0,1,.5.5v3a.5.5,0,0,1-.5.5h-3v2h3a.5.5,0,0,1,.475.658l-1,3a.5.5,0,0,1-.475.342h-2v5A.5.5,0,0,1,19,24.75Zm-2.5-1h2v-5a.5.5,0,0,1,.5-.5h2.14l.667-2H19a.5.5,0,0,1-.5-.5v-2.5a1,1,0,0,1,1-1H22v-2H19.5a3,3,0,0,0-3,3v2.5a.5.5,0,0,1-.5.5H14v2h2a.5.5,0,0,1,.5.5Zm3-11v.5h0Z" fill="#212a41"/><path d="M44.208,20.447V13.553a1,1,0,0,1,1.414-.91l7.583,3.447a1,1,0,0,1,0,1.82l-7.583,3.447A1,1,0,0,1,44.208,20.447Z" fill="#e0e0e0"/><path d="M45.207,21.948a1.5,1.5,0,0,1-1.5-1.5V13.553a1.5,1.5,0,0,1,2.121-1.365l7.583,3.447a1.5,1.5,0,0,1,0,2.73l-7.583,3.447A1.494,1.494,0,0,1,45.207,21.948Zm0-8.9a.5.5,0,0,0-.5.5v6.894a.493.493,0,0,0,.229.42.487.487,0,0,0,.478.035L53,17.455a.5.5,0,0,0,0-.91L45.415,13.1A.5.5,0,0,0,45.207,13.052Z" fill="#212a41"/><rect x="12" y="41" width="12" height="12" rx="2" ry="2" fill="#e0e0e0"/><path d="M22,53.5H14A2.5,2.5,0,0,1,11.5,51V43A2.5,2.5,0,0,1,14,40.5h8A2.5,2.5,0,0,1,24.5,43v8A2.5,2.5,0,0,1,22,53.5Zm-8-12A1.5,1.5,0,0,0,12.5,43v8A1.5,1.5,0,0,0,14,52.5h8A1.5,1.5,0,0,0,23.5,51V43A1.5,1.5,0,0,0,22,41.5Z" fill="#212a41"/><circle cx="18" cy="47" r="3" fill="#e0e0e0"/><path d="M18,50.5A3.5,3.5,0,1,1,21.5,47,3.5,3.5,0,0,1,18,50.5Zm0-6A2.5,2.5,0,1,0,20.5,47,2.5,2.5,0,0,0,18,44.5Z" fill="#212a41"/><circle cx="22" cy="43" r="0.5" fill="#212a41"/><rect x="35" y="37" width="22" height="20" rx="1" ry="1" fill="#a0b570"/><path d="M56,57.5H36A1.5,1.5,0,0,1,34.5,56V38A1.5,1.5,0,0,1,36,36.5H56A1.5,1.5,0,0,1,57.5,38V56A1.5,1.5,0,0,1,56,57.5Zm-20-20a.5.5,0,0,0-.5.5V56a.5.5,0,0,0,.5.5H56a.5.5,0,0,0,.5-.5V38a.5.5,0,0,0-.5-.5Z" fill="#212a41"/><rect x="38" y="37" width="22" height="20" rx="1" ry="1" fill="#bed38e"/><path d="M59,57.5H39A1.5,1.5,0,0,1,37.5,56V38A1.5,1.5,0,0,1,39,36.5H59A1.5,1.5,0,0,1,60.5,38V56A1.5,1.5,0,0,1,59,57.5Zm-20-20a.5.5,0,0,0-.5.5V56a.5.5,0,0,0,.5.5H59a.5.5,0,0,0,.5-.5V38a.5.5,0,0,0-.5-.5Z" fill="#212a41"/><path d="M58,55.5a.5.5,0,0,1-.5-.5V39a.5.5,0,0,1,1,0V55A.5.5,0,0,1,58,55.5Z" fill="#a0b570"/><path d="M40,25.5a.5.5,0,0,1-.5-.5V9a.5.5,0,0,1,1,0V25A.5.5,0,0,1,40,25.5Z" fill="#f14c7c"/><path d="M40,55.5a.5.5,0,0,1-.5-.5V39a.5.5,0,0,1,1,0V55A.5.5,0,0,1,40,55.5Z" fill="#dcf1ac"/><path d="M49,41a6,6,0,0,0-5.233,8.931L43,53l3.069-.767A6,6,0,1,0,49,41Z" fill="#e0e0e0"/><path d="M43,53.5a.5.5,0,0,1-.485-.621L43.235,50A6.506,6.506,0,1,1,46,52.765l-2.881.72A.5.5,0,0,1,43,53.5Zm3.069-1.767a.5.5,0,0,1,.245.064A5.506,5.506,0,1,0,44.2,49.686a.5.5,0,0,1,.05.366l-.566,2.261,2.261-.565A.5.5,0,0,1,46.069,51.733Z" fill="#212a41"/><path d="M49.707,50.206a2.494,2.494,0,0,1-1.768-.731l-1.414-1.414a2.5,2.5,0,0,1,0-3.536l.707-.707a.5.5,0,0,1,.707.707l-.707.707a1.5,1.5,0,0,0,0,2.122l1.414,1.414a1.5,1.5,0,0,0,2.122,0l.707-.707a.5.5,0,0,1,.707.707l-.707.707A2.494,2.494,0,0,1,49.707,50.206Z" fill="#212a41"/><circle cx="31" cy="32" r="8" fill="#db8e11"/><path d="M31,40.5A8.5,8.5,0,1,1,39.5,32,8.51,8.51,0,0,1,31,40.5Zm0-16A7.5,7.5,0,1,0,38.5,32,7.508,7.508,0,0,0,31,24.5Z" fill="#212a41"/><circle cx="34" cy="32" r="8" fill="#f9ac2f"/><path d="M34,40.5A8.5,8.5,0,1,1,42.5,32,8.51,8.51,0,0,1,34,40.5Zm0-16A7.5,7.5,0,1,0,41.5,32,7.508,7.508,0,0,0,34,24.5Z" fill="#212a41"/><path d="M34,38.5a.5.5,0,0,1,0-1A5.506,5.506,0,0,0,39.5,32a.5.5,0,0,1,1,0A6.508,6.508,0,0,1,34,38.5Z" fill="#db8e11"/><path d="M28,32.5a.5.5,0,0,1-.5-.5A6.508,6.508,0,0,1,34,25.5a.5.5,0,0,1,0,1A5.506,5.506,0,0,0,28.5,32,.5.5,0,0,1,28,32.5Z" fill="#ffca4d"/><path d="M34.5,35.5H32a.5.5,0,0,1,0-1h2.5a1,1,0,0,0,0-2h-1a2,2,0,0,1,0-4H36a.5.5,0,0,1,0,1H33.5a1,1,0,0,0,0,2h1a2,2,0,0,1,0,4Z" fill="#212a41"/><path d="M34,29.5a.5.5,0,0,1-.5-.5V27a.5.5,0,0,1,1,0v2A.5.5,0,0,1,34,29.5Z" fill="#212a41"/><path d="M34,37.5a.5.5,0,0,1-.5-.5V35a.5.5,0,0,1,1,0v2A.5.5,0,0,1,34,37.5Z" fill="#212a41"/></svg>